<svg xmlns="http://www.w3.org/2000/svg" xml:space="preserve" fill-rule="evenodd" width="100%"
  stroke-linejoin="round" stroke-miterlimit="2" clip-rule="evenodd" viewBox="0 0 1100 257"><path fill="#fff" d="M256 27.789C256 12.452 243.548 0 228.212 0H27.788C12.451 0 0 12.452 0 27.789v200.423C0 243.549 12.451 256 27.788 256h200.424C243.548 256 256 243.55 256 228.212V27.789Z"/><path fill="#4f46e5" d="M129.461 76.537c-.95-.332-1.846-.332-2.695.058L84.408 98.47c-2.183.975-3.957 4.234-3.959 7.273l-.005-.834c0 .62.073 1.185.21 1.68a5.643 5.643 0 0 0 5.602 5.003h83.488a5.642 5.642 0 0 0 5.625-5.245 6.432 6.432 0 0 0 .188-1.598l-.006.834c-.001-3.039-1.775-6.297-3.958-7.272L129.46 76.537Zm22.231 53.554a5.185 5.185 0 0 0-5.183-5.182H85.8a5.185 5.185 0 0 0-5.182 5.182v10.365a5.185 5.185 0 0 0 5.182 5.183h60.71a5.185 5.185 0 0 0 5.182-5.183v-10.365Zm23.691 34.067a5.185 5.185 0 0 0-5.182-5.182H85.8a5.185 5.185 0 0 0-5.183 5.182v10.365a5.185 5.185 0 0 0 5.182 5.183h84.4a5.185 5.185 0 0 0 5.183-5.183v-10.365Z"/><g fill="#fff" font-family="'SourceSansPro-SemiBold','Source Sans Pro',sans-serif" font-size="130" font-weight="600"><text transform="translate(289 178.785)">Edgmont UI</text></g></svg>