<svg viewBox="0 0 256 256" xmlns="http://www.w3.org/2000/svg" xml:space="preserve" fill-rule="evenodd" clip-rule="evenodd" stroke-linejoin="round" stroke-miterlimit="2"><path d="M256 27.789C256 12.452 243.548 0 228.211 0H27.789C12.452 0 0 12.452 0 27.789v200.422C0 243.548 12.452 256 27.789 256h200.422C243.548 256 256 243.548 256 228.211V27.789Z" fill="#fff"/><path d="M130.457 41.427c-1.597-.557-3.106-.557-4.533.098L54.669 78.326c-3.673 1.64-6.657 7.122-6.66 12.234L48 89.157c-.001 1.044.123 1.993.352 2.827.533 4.733 4.553 8.416 9.426 8.416h140.444c5.013 0 9.122-3.897 9.462-8.823.206-.8.316-1.702.316-2.688l-.009 1.402c-.003-5.112-2.987-10.593-6.66-12.234l-70.874-36.63Zm37.397 90.091c0-4.812-3.907-8.718-8.718-8.718H57.011c-4.812 0-8.718 3.906-8.718 8.718v17.436c0 4.811 3.906 8.718 8.718 8.718h102.125c4.811 0 8.718-3.907 8.718-8.718v-17.436Zm39.853 57.307c0-4.811-3.906-8.718-8.718-8.718H57.011c-4.812 0-8.718 3.907-8.718 8.718v17.436c0 4.812 3.906 8.718 8.718 8.718h141.978c4.812 0 8.718-3.906 8.718-8.718v-17.436Z" fill="#4f46e5"/></svg>
