<?xml version="1.0" encoding="UTF-8" standalone="no"?>
<!DOCTYPE svg PUBLIC "-//W3C//DTD SVG 1.1//EN" "http://www.w3.org/Graphics/SVG/1.1/DTD/svg11.dtd">
<svg width="100%" height="100%" viewBox="0 0 937 256" version="1.1" xmlns="http://www.w3.org/2000/svg" xmlns:xlink="http://www.w3.org/1999/xlink" xml:space="preserve" xmlns:serif="http://www.serif.com/" style="fill-rule:evenodd;clip-rule:evenodd;stroke-linejoin:round;stroke-miterlimit:2;">
    <g id="Layer1">
    </g>
    <g id="Icon" transform="matrix(0.27865,0,0,0.27865,-14.669,-14.669)">
        <g transform="matrix(2.59524,3.11272e-18,-3.11272e-18,2.01032,-609.143,-301.173)">
            <path d="M609,225.607C609,198.228 591.782,176 570.574,176L293.426,176C272.218,176 255,198.228 255,225.607L255,583.393C255,610.772 272.218,633 293.426,633L570.574,633C591.782,633 609,610.772 609,583.393L609,225.607Z" style="fill:white;"/>
        </g>
        <g transform="matrix(1.06277,0,0,1.06277,-32.136,-97.4314)">
            <g transform="matrix(1,0,0,1,-50,-49.9677)">
                <path d="M566.932,449.625C563.726,448.507 560.697,448.507 557.833,449.822L414.799,523.693C407.426,526.986 401.436,537.99 401.431,548.251L401.413,545.436C401.412,547.532 401.661,549.436 402.12,551.111C403.189,560.611 411.258,568.004 421.04,568.004L702.96,568.004C713.022,568.004 721.271,560.182 721.954,550.293C722.366,548.687 722.588,546.878 722.587,544.897L722.569,547.713C722.564,537.451 716.574,526.447 709.201,523.155L566.932,449.625Z" style="fill:rgb(79,70,229);"/>
            </g>
            <g transform="matrix(0.694138,0,0,0.411473,182.135,473.34)">
                <path d="M590.467,260.429C590.467,236.956 579.17,217.899 565.256,217.899L269.925,217.899C256.011,217.899 244.714,236.956 244.714,260.429L244.714,345.49C244.714,368.963 256.011,388.02 269.925,388.02L565.256,388.02C579.17,388.02 590.467,368.963 590.467,345.49L590.467,260.429Z" style="fill:rgb(79,70,229);"/>
            </g>
            <g transform="matrix(0.925517,0,0,0.411473,125.513,588.377)">
                <path d="M590.467,260.429C590.467,236.956 581.994,217.899 571.559,217.899L263.623,217.899C253.187,217.899 244.714,236.956 244.714,260.429L244.714,345.49C244.714,368.963 253.187,388.02 263.623,388.02L571.559,388.02C581.994,388.02 590.467,368.963 590.467,345.49L590.467,260.429Z" style="fill:rgb(79,70,229);"/>
            </g>
        </g>
    </g>
    <g transform="matrix(1,0,0,1,-6,-49.215)">
        <text x="295px" y="228px" style="font-family:'SourceSansPro-SemiBold', 'Source Sans Pro', sans-serif;font-weight:600;font-size:130px;">E<tspan x="363.64px " y="228px ">d</tspan>gmont UI</text>
    </g>
</svg>
