<svg xmlns="http://www.w3.org/2000/svg" xml:space="preserve" fill-rule="evenodd" stroke-linejoin="round" stroke-miterlimit="2" clip-rule="evenodd" viewBox="0 0 856 131"><path fill="#4f46e5" d="M49.017.242C48.067-.09 47.17-.09 46.322.3L3.964 22.176C1.781 23.151.007 26.41.005 29.45L0 28.615c0 .62.073 1.185.21 1.68a5.643 5.643 0 0 0 5.602 5.003H89.3a5.642 5.642 0 0 0 5.625-5.245 6.432 6.432 0 0 0 .188-1.598l-.006.834c-.001-3.039-1.775-6.297-3.959-7.272L49.017.242Zm22.231 53.554a5.185 5.185 0 0 0-5.183-5.182H5.356a5.185 5.185 0 0 0-5.182 5.182v10.365a5.185 5.185 0 0 0 5.182 5.183h60.71a5.185 5.185 0 0 0 5.182-5.183V53.796Zm23.691 34.067a5.185 5.185 0 0 0-5.183-5.182h-84.4a5.185 5.185 0 0 0-5.182 5.182v10.365a5.185 5.185 0 0 0 5.182 5.183h84.4a5.185 5.185 0 0 0 5.183-5.183V87.863Z"/><text x="295" y="228" font-family="'SourceSansPro-SemiBold','Source Sans Pro',sans-serif" font-size="130" font-weight="600" transform="translate(-86.444 -125.51)">Edgmont UI</text></svg>
